<svg width="152" height="153" viewBox="0 0 152 153" fill="none" xmlns="http://www.w3.org/2000/svg">
<circle cx="76" cy="76" r="76" fill="white"/>
<path d="M72.8413 152.287L75.3572 148.324L70.6743 148.139L72.8413 152.287Z" fill="#31287C"/>
<path d="M78.9659 152.269L81.1513 148.13L76.4775 148.324L78.9659 152.269Z" fill="#31287C"/>
<path d="M67.2402 151.852L70.0316 148.083L65.3762 147.556L67.2402 151.852Z" fill="#31287C"/>
<path d="M84.5394 151.824L86.4125 147.528L81.7664 148.083L84.5394 151.824Z" fill="#31287C"/>
<path d="M147.07 76.2778L151 73.7685L146.914 71.5555L147.07 76.2778Z" fill="#31287C"/>
<path d="M146.859 70.9444L150.605 68.1481L146.345 66.25L146.859 70.9444Z" fill="#31287C"/>
<path d="M145.803 76.4444C145.812 37.5648 114.565 6.1296 76.0185 6.21293C37.4717 6.31479 6.21558 37.9074 6.21558 76.7963C6.2064 115.685 37.4533 147.13 76.0093 147.037C114.547 146.935 145.803 115.324 145.803 76.4444ZM137.622 61.6481C137.622 61.6481 137.3 62.824 137.87 62.9815C138.246 63.0926 138.641 63.2037 138.733 63.5277C138.825 63.8611 138.613 64.1759 138.365 64.2407C138.072 64.3333 134.417 65.3518 134.417 65.3518C134.417 65.3518 133.857 65.5185 133.728 65C133.6 64.5463 134.224 64.25 134.224 64.25C137.117 62.4537 136.547 59.7037 136.547 59.7037L137.603 59.3981C137.594 59.4074 137.87 60.3889 137.622 61.6481ZM132.434 47.4074C132.434 47.4074 132.388 48.6203 132.985 48.6389C133.38 48.6574 133.793 48.6759 133.949 48.9722C134.123 49.2685 133.986 49.6296 133.765 49.7592C133.508 49.9074 130.193 51.7777 130.193 51.7777C130.193 51.7777 129.67 52.0648 129.431 51.6018C129.22 51.1852 129.743 50.7592 129.743 50.7592C132.14 48.324 130.928 45.787 130.928 45.787L131.892 45.25C131.883 45.2407 132.379 46.1296 132.434 47.4074ZM125.878 35.787L123.417 38.1944C123.417 38.1944 123.013 38.6759 122.71 38.5C122.287 38.2592 122.517 37.8333 122.517 37.8333C122.517 37.8333 122.838 36.9166 122.875 35.574C122.903 34.2315 122.021 33.2407 122.021 33.2407L122.728 32.537L125.878 35.787ZM117.568 28.9722C117.568 28.9722 117.164 28.3889 117.568 28C118.045 27.537 118.651 28.3055 118.651 28.3055L122.141 31.9166L111.746 42.1203L108 38.2314C107.807 38.037 107.431 37.5278 107.871 37.1018C108.193 36.7963 108.753 37.1018 108.753 37.1018C109.322 37.3703 109.791 37 109.791 37L117.311 29.6111C117.733 29.2037 117.568 28.9722 117.568 28.9722ZM119.781 51.1389L118.817 51.6759C118.817 51.6759 118.247 50.7685 118.211 49.5092C118.211 49.5092 118.229 48.6944 117.669 48.4629C117.311 48.2963 116.916 48.25 116.751 47.9444C116.567 47.6389 116.714 47.287 116.925 47.1666C117.201 47.0092 120.166 45.324 120.166 45.324C120.166 45.324 120.57 45.1111 120.846 45.5833C121.085 46.0185 120.552 46.4722 120.552 46.4722C118.302 49.0555 119.781 51.1389 119.781 51.1389ZM115.502 45.9722L112.362 42.7129L113.078 42.0092C113.078 42.0092 114.023 42.9259 115.373 42.9352C116.714 42.9352 117.614 42.6481 117.614 42.6481C117.614 42.6481 118.045 42.4166 118.275 42.8426C118.44 43.1481 117.953 43.5463 117.953 43.5463L115.502 45.9722ZM117.779 40.9074C117.586 41.0833 116.659 41.1203 117.265 39.9537C117.862 38.787 117.494 37.7037 117.494 37.7037L118.174 37.0277C118.174 37.0277 119.23 37.4444 120.405 36.8611C121.571 36.287 121.507 37.2315 121.323 37.4074L117.779 40.9074ZM108.018 20.7315L109.69 21.7037C109.69 21.7037 113.922 23.7407 111.664 27.7129C110.167 30.3426 107.963 30.0833 106.641 29.6111C106.641 29.6111 107.073 29.7407 107.045 30.6759L106.981 34.8055C106.926 35.3981 107.137 35.6111 107.137 35.6111C107.137 35.6111 107.477 35.9166 107.201 36.4259C106.861 37 105.897 36.3333 105.897 36.3333L103.088 34.7129C103.088 34.7129 102.197 34.3148 102.537 33.7222C102.775 33.2777 103.464 33.5 103.464 33.5C103.464 33.5 103.941 33.6018 104.006 33.0926C104.006 33.0926 104.088 28.7777 104.098 28.5C104.116 28.2407 103.84 28.0926 103.84 28.0926L104.373 27.1296C104.373 27.1296 105.438 27.7685 106.044 26.6852L107.945 23.3611C108.569 22.2777 107.486 21.6852 107.486 21.6852L108.018 20.7315ZM101.784 17.8055C102.123 17.2222 102.922 17.7777 102.922 17.7777L107.275 20.3055L101.113 31.1203C101.113 31.1203 100.875 31.6666 101.279 32.1574C101.279 32.1574 101.719 32.6389 101.499 33.0185C101.187 33.5648 100.618 33.324 100.37 33.1759L95.3745 30.2963C95.1266 30.1574 94.6307 29.7685 94.9521 29.2315C95.1633 28.8426 95.8061 28.9907 95.8061 28.9907C96.4213 29.0926 96.7702 28.6018 96.7702 28.6018L102.004 19.4166C102.279 18.9259 102.068 18.7407 102.068 18.7407C102.068 18.7407 101.517 18.2963 101.784 17.8055ZM93.1157 15.6666L93.4095 14.6018L95.2735 15.1111C95.2735 15.1111 99.8738 16.0277 98.6709 20.4444C97.4497 24.8611 93.0331 23.2963 93.0331 23.2963L91.1691 22.7777L91.4629 21.6944C91.4629 21.6944 92.6474 22.074 92.9688 20.8703L93.9788 17.1574C94.3002 15.9537 93.1157 15.6666 93.1157 15.6666ZM82.8408 26.1111C82.951 25.6666 83.5938 25.6574 83.5938 25.6574C84.2273 25.6018 84.4385 25.0555 84.4385 25.0555L87.2299 14.8426C87.386 14.287 87.1381 14.1666 87.1381 14.1666C87.1381 14.1666 86.4862 13.8703 86.6423 13.3333C86.8167 12.6944 87.7349 13.0463 87.7349 13.0463L92.5739 14.3703L89.2775 26.3889C89.2775 26.3889 89.1765 26.9815 89.6907 27.3518C89.6907 27.3518 90.2325 27.7037 90.1131 28.1296C89.957 28.7315 89.3326 28.6389 89.0663 28.5648L83.5111 27.037C83.254 26.9444 82.6664 26.7037 82.8408 26.1111ZM76.9918 12.1944C76.9918 12.1944 77.9835 12.1944 79.122 12.787C79.122 12.787 80.1413 13.4352 80.4626 12.9166C80.6738 12.574 80.8942 12.2222 81.2248 12.2315C81.5829 12.2315 81.8124 12.5277 81.8032 12.7963C81.8032 13.0926 81.7665 16.9259 81.7665 16.9259C81.7665 16.9259 81.7665 17.5185 81.2156 17.5C80.7473 17.4907 80.6371 16.8055 80.6371 16.8055C79.7556 13.4907 76.9734 13.3148 76.9734 13.3148L76.9918 12.1944ZM72.3089 13.4074C73.2271 12.6018 74.6871 12.1759 76.147 12.1666L76.1287 13.3055C75.3482 13.3055 74.4391 13.4907 73.9066 13.824C73.4016 14.1574 73.1628 14.5833 73.1445 15.1203C73.1445 15.574 73.3373 15.8796 73.7138 16.0648C74.1086 16.2407 74.5952 16.3796 75.1462 16.4722L76.8816 16.8055C78.4334 17.1389 79.5444 17.7129 80.3341 18.3426C81.3809 19.1666 82.4827 20.5277 82.4644 21.9537C82.4552 22.5277 82.4001 23.074 82.1981 23.5926C81.8032 24.6296 81.0503 25.4074 80.1045 25.9815C79.1404 26.5463 77.8825 26.8148 76.8173 26.8055L76.8265 25.6666C77.3958 25.6296 77.8641 25.4815 78.4885 25.1111C79.168 24.7129 79.4985 24.1759 79.5261 23.4444C79.4985 22.4907 78.7639 21.8426 77.2673 21.4629L75.6236 21.0833C74.9993 20.9722 74.43 20.8055 73.9433 20.6481C73.2546 20.4444 72.667 20.1296 72.1987 19.7315C71.7396 19.3426 71.3907 18.8889 71.1611 18.3518C70.9315 17.824 70.8305 17.25 70.8397 16.6666C70.8581 15.3518 71.3447 14.2685 72.3089 13.4074ZM75.9909 25.7037L75.9726 26.8148C75.9726 26.8148 74.9074 26.8611 73.8148 26.2685C73.8148 26.2685 73.1169 25.8518 72.6302 26.2129C72.3181 26.4537 72.0701 26.7777 71.7212 26.7777C71.3815 26.7685 71.1427 26.4815 71.1519 26.2222C71.1519 25.9166 71.1887 22.4815 71.1887 22.4815C71.1887 22.4815 71.1978 22.0185 71.7396 22.0277C72.2446 22.0277 72.364 22.7129 72.364 22.7129C73.475 25.9537 75.9909 25.7037 75.9909 25.7037ZM68.2687 22.9074C68.6176 22.9074 68.7278 23.537 68.7278 23.537L69.5726 26.8703L65.2019 28L64.954 27.0185C64.954 27.0185 66.2211 26.6481 66.9006 25.4815C67.5709 24.3148 67.7637 23.3796 67.7637 23.3796C67.7637 23.3796 67.7821 22.8889 68.2687 22.9074ZM63.4573 21.0463L63.2277 20.1111C63.2277 20.1111 64.1092 19.3889 64.201 18.0833C64.2928 16.7685 65.0733 17.3055 65.1376 17.5463L66.3496 22.3796C66.4139 22.6296 65.9824 23.4629 65.2845 22.3611C64.5683 21.25 63.4573 21.0463 63.4573 21.0463ZM66.0099 12.75L66.8547 16.0926C66.8547 16.0926 67.0567 16.6759 66.7628 16.8518C66.3313 17.1111 66.0834 16.6852 66.0834 16.6852C66.0834 16.6852 65.4682 15.9537 64.3204 15.2685C63.191 14.5648 61.8871 14.8518 61.8871 14.8518L61.6484 13.8703L66.0099 12.75ZM55.9554 15.3426L60.8128 14.0926L64.3755 28.25L59.1692 29.5926C58.8937 29.6574 58.2785 29.75 58.1316 29.1389C58.0122 28.7129 58.5723 28.3703 58.5723 28.3703C59.0865 28.0092 59.0039 27.4166 59.0039 27.4166L56.4237 17.1666C56.2768 16.6111 56.0013 16.6296 56.0013 16.6296C56.0013 16.6296 55.3035 16.6944 55.1658 16.1481C54.9821 15.5 55.9554 15.3426 55.9554 15.3426ZM39.6754 23.574L50.0146 31.3148C50.0146 31.3148 50.4186 31.75 51.0154 31.5926C51.0154 31.5926 51.6214 31.3703 51.8877 31.7315C52.255 32.2222 51.7959 32.6666 51.5755 32.824L46.9844 36.2963C46.7641 36.4722 46.2407 36.7685 45.8642 36.2685C45.5979 35.9259 45.9744 35.3889 45.9744 35.3889C46.5529 34.7222 46.0111 34.3518 46.0111 34.3518L44.643 33.324L41.9802 35.3333L41.2915 34.4074L43.6697 32.6111L36.3974 27.1481L36.0944 26.287L39.6754 23.574ZM40.5386 38.4907L36.8932 28.4722L38.748 29.8611L41.5945 37.6852C41.5945 37.6852 41.8149 38.287 42.5954 37.9444C42.5954 37.9444 43.2014 37.7407 43.4677 38.0833C43.8258 38.5833 43.385 39.0185 43.1646 39.1852L41.5119 40.4259C41.3007 40.6018 40.7589 40.9074 40.3916 40.4074C40.1254 40.0463 40.5018 39.5185 40.5018 39.5185C40.8324 38.9814 40.5386 38.4907 40.5386 38.4907ZM29.7862 32.2222L30.6861 31.1111C30.6861 31.1111 31.237 30.2963 31.7512 30.7407C32.1369 31.0555 31.9348 31.5648 31.9348 31.5648C31.9348 31.5648 31.8706 31.7777 32.1277 32.3148L34.3865 38.1296L32.8714 37.7963L31.2186 33.4166C30.9799 32.9629 30.5667 33.2407 30.5667 33.2407C30.5667 33.2407 30.0066 33.6759 29.6209 33.3518C29.0976 32.9259 29.7862 32.2222 29.7862 32.2222ZM23.2485 40.1944L26.4439 36.3055C26.4439 36.3055 26.9857 35.5 27.4999 35.9259C27.8763 36.2407 27.5733 36.8889 27.5733 36.8889C27.5733 36.8889 27.3805 37.3518 27.8763 37.4907L35.6904 39.1852L38.3073 41.3611C38.3073 41.3611 38.7939 41.6852 39.3357 41.3796C39.3357 41.3796 39.8683 41.0185 40.2172 41.3055C40.6946 41.7037 40.3641 42.2315 40.1804 42.4352L36.5259 46.8981C36.3515 47.1203 35.9016 47.5463 35.4333 47.1481C35.0935 46.8703 35.3323 46.2685 35.3323 46.2685C35.5434 45.6759 35.1302 45.2685 35.1302 45.2685L32.5041 43.0648L24.6993 41.3889C24.1484 41.2222 23.9372 41.324 23.9372 41.324C23.9372 41.324 23.4781 41.6296 23.1016 41.3055C22.569 40.8981 23.2485 40.1944 23.2485 40.1944ZM12.2575 70.7777L15.6824 70.7685C15.6824 70.7685 16.2976 70.7037 16.3986 71.0463C16.5272 71.5277 16.0589 71.6666 16.0589 71.6666C16.0589 71.6666 15.2049 72.0926 14.2592 73.037C13.3134 73.9907 13.2583 75.3148 13.2583 75.3148H12.2666V70.7777H12.2575ZM16.6465 72.7963L21.5865 72.7777C21.8436 72.7777 22.5323 73.4074 21.2927 73.824C20.0715 74.2407 19.594 75.2777 19.594 75.2777H18.6482C18.6482 75.2777 18.1708 74.2407 16.9312 73.8333C15.6916 73.4352 16.3986 72.7963 16.6465 72.7963ZM26.7377 81.5648C26.7377 81.8611 26.6551 82.4722 26.0491 82.4815C25.6083 82.4815 25.4155 81.8611 25.4155 81.8611C25.1951 81.2685 24.5983 81.2129 24.5983 81.2129L14.1031 81.2407C13.5338 81.2407 13.4879 81.5185 13.4879 81.5185C13.4879 81.5185 13.3777 82.2129 12.8176 82.2222C12.1473 82.2222 12.2483 81.2407 12.2483 81.2407V76.1852L26.7286 76.1481L26.7377 81.5648ZM26.7561 75.287H25.7461C25.7461 75.287 25.7002 73.9537 24.7544 73.0185C23.7994 72.0833 22.9547 71.6574 22.9547 71.6574C22.9547 71.6574 22.4864 71.5185 22.6149 71.037C22.7159 70.7129 23.3312 70.7592 23.3312 70.7592H26.7561V75.287ZM27.0683 68.4907C26.9948 68.75 26.7469 69.3333 26.1501 69.1574C25.7277 69.037 25.7185 68.3796 25.7185 68.3796C25.6726 67.75 25.1309 67.5277 25.1309 67.5277L15.058 64.6018C14.5071 64.4444 14.3877 64.6852 14.3877 64.6852C14.3877 64.6852 14.0847 65.3333 13.5521 65.1759C12.9186 64.9907 13.2767 64.074 13.2767 64.074L14.6724 59.2129L28.5742 63.2685L27.0683 68.4907ZM28.8129 62.4629L27.757 62.1574C27.757 62.1574 28.1426 60.9722 26.9397 60.6111L17.4454 57.8426C16.2609 57.5 15.9579 58.7129 15.9579 58.7129L14.9019 58.3981C14.9019 58.3981 16.5363 51.8981 23.7168 53.9815C30.8881 56.074 28.8129 62.4629 28.8129 62.4629ZM30.3372 55.824C29.9515 55.6203 30.0801 54.9814 30.0801 54.9814C30.1719 54.3518 29.676 54.0185 29.676 54.0185L20.4663 48.9722C19.9705 48.7037 19.796 48.9259 19.796 48.9259C19.796 48.9259 19.3645 49.4907 18.8778 49.2129C18.2993 48.8889 18.8319 48.0833 18.8319 48.0833L21.2468 43.6296C21.2468 43.6296 21.6233 42.7129 22.2109 43.037C22.7068 43.2963 22.4588 43.9629 22.4588 43.9629C22.4588 43.9629 22.367 44.2222 22.872 44.5L32.0909 49.5555C32.0909 49.5555 32.6327 49.787 33.1102 49.3703C33.1102 49.3703 33.5693 48.9166 33.9549 49.1296C34.5059 49.4259 34.2763 50.0092 34.1294 50.25L31.3747 55.3518C31.2462 55.6203 30.8881 56.1111 30.3372 55.824ZM45.1388 129.25C42.173 130.917 39.7305 129.12 39.7305 129.12L40.3457 128.268C40.3457 128.268 42.3566 129.583 44.5879 128.37C44.5879 128.37 45.1939 127.991 45.4602 128.509C45.6806 128.917 45.1388 129.25 45.1388 129.25ZM46.5988 118.241C46.5988 118.241 45.6622 117.509 44.9735 118.472L39.4275 126.157C38.7388 127.12 39.703 127.796 39.703 127.796L39.0878 128.648C39.0878 128.648 33.8356 125.074 38.0318 119.259C42.2281 113.463 47.2232 117.38 47.2232 117.38L46.5988 118.241ZM48.0312 124.62C47.6731 124.361 47.9669 123.768 47.9669 123.768C49.0872 120.694 47.2507 118.704 47.2507 118.704L47.8751 117.843C47.8751 117.843 48.628 118.407 49.1973 119.5C49.1973 119.5 49.6473 120.565 50.1707 120.343C50.5104 120.204 50.8777 120.046 51.1348 120.241C51.4102 120.435 51.4286 120.796 51.2817 121C51.1256 121.231 48.7841 124.472 48.7841 124.472C48.7841 124.472 48.4352 124.935 48.0312 124.62ZM52.4478 136C52.4478 136 46.507 133.898 49.1055 127.204C51.7133 120.518 57.498 123.028 57.498 123.028L57.1124 124.018C57.1124 124.018 56.0289 123.565 55.6065 124.667L52.1632 133.509C51.7316 134.62 52.8243 135.009 52.8243 135.009L52.4478 136ZM53.21 136.306L53.5956 135.315C53.5956 135.315 54.6607 135.768 55.1015 134.676L58.554 125.833C58.9855 124.722 57.8929 124.333 57.8929 124.333L58.2693 123.343C58.2693 123.343 64.2102 125.444 61.6116 132.139C59.0039 138.806 53.21 136.306 53.21 136.306ZM67.9473 140.018L62.5115 139.268C62.2452 139.222 61.6667 139.074 61.7586 138.491C61.8136 138.056 62.4289 137.963 62.4289 137.963C62.9982 137.833 63.1451 137.287 63.1451 137.287L64.5499 127.296C64.6326 126.75 64.3663 126.667 64.3663 126.667C64.3663 126.667 63.7327 126.472 63.7878 125.944C63.8888 125.306 64.7887 125.528 64.7887 125.528L69.5359 126.194L67.8647 137.944C67.8647 137.944 67.8463 138.518 68.3789 138.796C68.3789 138.796 68.9298 139.074 68.8747 139.491C68.8013 140.074 68.2044 140.065 67.9473 140.018ZM72.0885 130.815L71.4274 135.518C71.3907 135.759 70.7112 136.343 70.4816 135.102C70.2612 133.88 69.3614 133.287 69.3614 133.287L69.4808 132.38C69.4808 132.38 70.5183 132.074 71.0785 130.944C71.6294 129.833 72.1252 130.565 72.0885 130.815ZM74.1269 130.157C74.1269 130.157 74.0902 130.759 73.778 130.806C73.3097 130.87 73.2363 130.398 73.2363 130.398C73.2363 130.398 72.9608 129.537 72.1895 128.5C71.4274 127.463 70.2062 127.259 70.2062 127.259L70.3347 126.296L74.5861 126.889L74.1269 130.157ZM83.2265 140.111L77.7539 140.676C77.4968 140.704 76.9 140.694 76.8449 140.111C76.7898 139.685 77.3682 139.444 77.3682 139.444C77.91 139.176 77.9008 138.602 77.9008 138.602L76.9 128.574C76.8449 128.028 76.5786 128.009 76.5786 128.009C76.5786 128.009 75.8991 127.972 75.8532 127.444C75.7889 126.806 76.7255 126.806 76.7255 126.806L81.4819 126.306L82.648 138.111C82.648 138.111 82.7674 138.667 83.3458 138.815C83.3458 138.815 83.9611 138.935 83.9978 139.361C84.0712 139.935 83.4928 140.065 83.2265 140.111ZM84.5303 134.713C84.0253 133.574 82.9969 133.222 82.9969 133.222L82.9143 132.315C82.9143 132.315 83.8417 131.759 84.108 130.537C84.3743 129.324 85.0446 129.926 85.0629 130.167L85.5404 134.889C85.5679 135.13 85.0446 135.852 84.5303 134.713ZM86.6973 129.741C86.2658 129.917 86.0821 129.491 86.0821 129.491C86.0821 129.491 85.6047 128.713 84.6222 127.898C83.6397 127.083 82.3909 127.167 82.3909 127.167L82.2991 126.204L86.5688 125.759L86.8902 129.037C86.8902 129.037 87.0004 129.62 86.6973 129.741ZM93.0422 138.324C92.7943 138.407 92.2158 138.546 92.0138 137.981C91.8669 137.593 92.3627 137.222 92.3627 137.222C92.8219 136.824 92.6841 136.278 92.6841 136.278L89.2959 126.796C89.1123 126.278 88.8552 126.333 88.8552 126.333C88.8552 126.333 88.194 126.463 88.0196 125.963C87.8084 125.361 88.7082 125.13 88.7082 125.13L93.1983 123.5L97.8537 136.565L93.0422 138.324ZM93.9604 123.194L97.9914 121.722L99.1025 124.815C99.1025 124.815 99.3412 125.352 99.0749 125.556C98.6984 125.824 98.4138 125.454 98.4138 125.454C98.4138 125.454 97.7527 124.815 96.6141 124.268C95.4663 123.722 94.2726 124.102 94.2726 124.102L93.9604 123.194ZM96.3478 129.824L96.0356 128.963C96.0356 128.963 96.8161 128.204 96.7794 126.944C96.7335 125.704 97.5139 126.12 97.6058 126.352L99.1943 130.806C99.2769 131.037 98.9464 131.87 98.1751 130.898C97.4221 129.907 96.3478 129.824 96.3478 129.824ZM98.6433 136.287L98.322 135.389C98.322 135.389 99.4881 134.907 100.011 133.75C100.544 132.593 100.636 131.676 100.636 131.676C100.636 131.676 100.618 131.204 101.095 131.167C101.416 131.139 101.572 131.713 101.572 131.713L102.684 134.815L98.6433 136.287ZM107.201 132.398C106.972 132.546 106.448 132.815 106.127 132.324C105.897 131.972 106.292 131.491 106.292 131.491C106.632 130.991 106.366 130.491 106.366 130.491L100.829 122.111C100.535 121.657 100.287 121.759 100.287 121.759C100.287 121.759 99.6809 122.037 99.3871 121.602C99.029 121.065 99.8554 120.62 99.8554 120.62L103.84 117.954L111.462 129.528L107.201 132.398ZM108.129 120.454C107.807 119.259 108.67 119.463 108.799 119.667L111.397 123.62C111.535 123.824 111.397 124.722 110.433 123.944C109.46 123.176 108.386 123.352 108.386 123.352L107.89 122.593C107.89 122.583 108.45 121.667 108.129 120.454ZM110.048 118.546C109.745 118.907 109.386 118.62 109.386 118.62C109.386 118.62 108.606 118.148 107.366 117.889C106.118 117.639 105.043 118.296 105.043 118.296L104.511 117.5L108.092 115.093L109.892 117.843C109.892 117.833 110.259 118.287 110.048 118.546ZM112.15 129.093L111.618 128.287C111.618 128.287 112.646 127.546 112.885 126.268C113.133 125.018 113.013 124.12 113.013 124.12C113.013 124.12 112.885 123.676 113.335 123.528C113.638 123.426 113.913 123.935 113.913 123.935L115.731 126.676L112.15 129.093ZM76.0001 121.787C51.2633 121.852 31.2278 101.685 31.2278 76.7315C31.2278 51.787 51.2725 31.5092 76.0001 31.4444C100.737 31.3889 120.782 51.5648 120.782 76.5092C120.791 101.463 100.737 121.731 76.0001 121.787ZM119.23 52.4166L120.212 51.8518C120.534 52.3426 120.892 52.6666 121.525 53.0277C122.177 53.4166 122.82 53.4537 123.454 53.1018C124.262 52.6111 124.454 51.6389 124.032 50.1389L123.545 48.5185C123.353 47.9074 123.196 47.3426 123.095 46.824C122.949 46.1203 122.912 45.4444 123.022 44.8518C123.114 44.2592 123.353 43.7222 123.692 43.25C124.032 42.787 124.464 42.4074 124.987 42.1296C126.135 41.4722 127.301 41.3426 128.513 41.75C129.679 42.1574 130.763 43.2314 131.488 44.4814L130.496 45.0463C130.111 44.3703 129.505 43.6574 128.945 43.3703C128.412 43.0833 127.925 43.0926 127.457 43.3426C127.062 43.574 126.888 43.8981 126.934 44.3148C126.97 44.7592 127.09 45.2407 127.283 45.7777L127.852 47.4537C128.339 48.9814 128.394 50.2407 128.256 51.2592C128.054 52.5648 127.429 54.2222 126.208 54.9259C125.703 55.2129 125.207 55.4352 124.656 55.5092C123.582 55.6852 122.535 55.4259 121.571 54.8796C120.607 54.3426 119.753 53.3611 119.23 52.4166ZM123.307 60.287C123.307 60.287 123.518 59.5 123.05 59.1296C122.737 58.8889 122.352 58.75 122.269 58.4166C122.168 58.0833 122.388 57.7777 122.636 57.7037C122.93 57.6111 126.208 56.6944 126.208 56.6944C126.208 56.6944 126.64 56.5648 126.796 57.1018C126.915 57.5833 126.291 57.8981 126.291 57.8981C123.527 59.8796 124.454 62.25 124.454 62.25L123.389 62.5555C123.389 62.5463 123.059 61.5277 123.307 60.287ZM123.628 63.3703L124.712 63.0648C124.904 63.6018 125.18 64.0185 125.703 64.5185C126.254 65.0555 126.869 65.2314 127.567 65.0463C128.467 64.7685 128.889 63.8611 128.825 62.3055L128.733 60.6203C128.669 59.9722 128.66 59.3703 128.687 58.8611C128.697 58.1203 128.834 57.4722 129.082 56.9166C129.312 56.3611 129.661 55.8981 130.102 55.5277C130.551 55.1574 131.066 54.8889 131.626 54.75C132.875 54.3703 134.059 54.537 135.124 55.2314C136.153 55.8889 136.961 57.1852 137.374 58.5926L136.29 58.9074C136.061 58.1389 135.648 57.324 135.17 56.8981C134.72 56.5092 134.243 56.3796 133.728 56.5277C133.297 56.6481 133.049 56.9259 132.985 57.3426C132.93 57.7777 132.93 58.2777 132.985 58.8518L133.15 60.6111C133.26 62.2222 133.021 63.4537 132.645 64.3981C132.149 65.6389 131.167 67.0926 129.798 67.4722C129.238 67.6203 128.715 67.7314 128.164 67.6852C127.081 67.5833 126.116 67.0833 125.308 66.3148C124.519 65.5555 123.913 64.4074 123.628 63.3703ZM132.452 68.1203C139.917 67.9444 139.825 74.6203 139.825 74.6203L138.724 74.6389C138.724 74.6389 138.733 73.4074 137.493 73.4352L127.613 73.6666C126.383 73.6944 126.429 74.9444 126.429 74.9444L125.327 74.9629C125.336 74.9629 124.978 68.2963 132.452 68.1203ZM125.363 75.8333L126.456 75.8148C126.456 75.8148 126.456 77.0555 127.687 77.0185L137.567 76.787C138.806 76.7592 138.742 75.5185 138.742 75.5185L139.835 75.5C139.835 75.5 140.211 82.1574 132.737 82.3333C125.272 82.5092 125.363 75.8333 125.363 75.8333Z" fill="#31287C"/>
<path d="M61.6759 151L64.7336 147.463L60.1333 146.574L61.6759 151Z" fill="#31287C"/>
<path d="M90.067 150.981L91.6188 146.556L87.0186 147.435L90.067 150.981Z" fill="#31287C"/>
<path d="M56.1756 149.722L59.4996 146.426L54.9819 145.185L56.1756 149.722Z" fill="#31287C"/>
<path d="M95.5213 149.704L96.7333 145.176L92.2157 146.407L95.5213 149.704Z" fill="#31287C"/>
<path d="M50.8408 148.037L54.3943 145.009L49.9868 143.445L50.8408 148.037Z" fill="#31287C"/>
<path d="M100.865 148.019L101.738 143.417L97.3209 144.982L100.865 148.019Z" fill="#31287C"/>
<path d="M45.653 145.972L49.4085 143.213L45.1296 141.306L45.653 145.972Z" fill="#31287C"/>
<path d="M106.062 145.944L106.604 141.269L102.316 143.185L106.062 145.944Z" fill="#31287C"/>
<path d="M40.6211 143.509L44.5786 141.046L40.4558 138.824L40.6211 143.509Z" fill="#31287C"/>
<path d="M111.094 143.472L111.278 138.787L107.155 141.009L111.094 143.472Z" fill="#31287C"/>
<path d="M35.8005 140.676L39.9142 138.509L35.9658 135.972L35.8005 140.676Z" fill="#31287C"/>
<path d="M111.82 138.472L115.942 140.63L115.777 135.944L111.82 138.472Z" fill="#31287C"/>
<path d="M120.524 132.407L124.932 133.917L124.078 129.315L120.524 132.407Z" fill="#31287C"/>
<path d="M116.282 135.602L120.561 137.445L120.056 132.787L116.282 135.602Z" fill="#31287C"/>
<path d="M23.9464 125.583L22.7527 130.111L27.2519 128.926L23.9464 125.583Z" fill="#31287C"/>
<path d="M27.7017 129.352L26.8386 133.972L31.2369 132.435L27.7017 129.352Z" fill="#31287C"/>
<path d="M31.1909 137.491L35.4606 135.639L31.7143 132.824L31.1909 137.491Z" fill="#31287C"/>
<path d="M124.528 128.889L129.027 130.074L127.843 125.537L124.528 128.889Z" fill="#31287C"/>
<path d="M20.5031 121.556L18.9604 125.981L23.5424 125.139L20.5031 121.556Z" fill="#31287C"/>
<path d="M131.708 121.019L136.327 121.519L134.49 117.213L131.708 121.019Z" fill="#31287C"/>
<path d="M128.256 125.074L132.828 125.935L131.313 121.5L128.256 125.074Z" fill="#31287C"/>
<path d="M17.335 117.269L15.4802 121.583L20.108 121.074L17.335 117.269Z" fill="#31287C"/>
<path d="M14.5161 112.769L12.3491 116.907L16.9953 116.759L14.5161 112.769Z" fill="#31287C"/>
<path d="M134.839 116.704L139.486 116.852L137.355 112.704L134.839 116.704Z" fill="#31287C"/>
<path d="M12.0187 108.056L9.55786 112.037L14.2132 112.222L12.0187 108.056Z" fill="#31287C"/>
<path d="M137.649 112.167L142.295 111.972L139.853 107.991L137.649 112.167Z" fill="#31287C"/>
<path d="M9.88839 103.167L7.1521 106.954L11.7524 107.5L9.88839 103.167Z" fill="#31287C"/>
<path d="M140.119 107.426L144.729 106.889L141.992 103.111L140.119 107.426Z" fill="#31287C"/>
<path d="M8.12533 98.1389L5.09521 101.713L9.66794 102.602L8.12533 98.1389Z" fill="#31287C"/>
<path d="M142.231 102.537L146.785 101.648L143.783 98.0647L142.231 102.537Z" fill="#31287C"/>
<path d="M6.74791 92.9907L3.46069 96.3148L7.95078 97.5555L6.74791 92.9907Z" fill="#31287C"/>
<path d="M143.966 97.4814L148.447 96.25L145.188 92.9166L143.966 97.4814Z" fill="#31287C"/>
<path d="M5.75628 87.7407L2.2395 90.824L6.60104 92.3796L5.75628 87.7407Z" fill="#31287C"/>
<path d="M145.344 92.2778L149.714 90.7037L146.216 87.6296L145.344 92.2778Z" fill="#31287C"/>
<path d="M5.1412 82.4352L1.40405 85.2408L5.66458 87.1389L5.1412 82.4352Z" fill="#31287C"/>
<path d="M146.308 86.9907L150.568 85.0833L146.85 82.287L146.308 86.9907Z" fill="#31287C"/>
<path d="M4.92079 77.1018L1 79.6203L5.09525 81.8148L4.92079 77.1018Z" fill="#31287C"/>
<path d="M146.886 81.6389L150.991 79.426L147.07 76.9167L146.886 81.6389Z" fill="#31287C"/>
<path d="M5.10453 71.7316L1.00928 73.9538L4.92088 76.463L5.10453 71.7316Z" fill="#31287C"/>
<path d="M5.68289 66.3982L1.42236 68.2963L5.15033 71.0834L5.68289 66.3982Z" fill="#31287C"/>
<path d="M6.64714 61.1019L2.25806 62.676L5.78401 65.7408L6.64714 61.1019Z" fill="#31287C"/>
<path d="M146.271 65.6481L149.797 62.5648L145.408 60.9907L146.271 65.6481Z" fill="#31287C"/>
<path d="M8.00595 55.8796L3.51587 57.1296L6.78472 60.4445L8.00595 55.8796Z" fill="#31287C"/>
<path d="M145.279 60.3982L148.567 57.0741L144.086 55.8427L145.279 60.3982Z" fill="#31287C"/>
<path d="M9.73224 50.8427L5.1687 51.7315L8.18964 55.2871L9.73224 50.8427Z" fill="#31287C"/>
<path d="M143.911 55.2407L146.941 51.6759L142.387 50.787L143.911 55.2407Z" fill="#31287C"/>
<path d="M11.835 45.9445L7.22559 46.4815L9.96187 50.2593L11.835 45.9445Z" fill="#31287C"/>
<path d="M142.167 50.2037L144.912 46.426L140.294 45.8889L142.167 50.2037Z" fill="#31287C"/>
<path d="M14.2958 41.1852L9.64966 41.3889L12.1013 45.3704L14.2958 41.1852Z" fill="#31287C"/>
<path d="M140.037 45.3241L142.507 41.3426L137.851 41.1482L140.037 45.3241Z" fill="#31287C"/>
<path d="M75.9358 38.6852C55.2024 38.7315 38.3072 55.787 38.3164 76.713C38.3072 97.6296 55.1932 114.62 75.9266 114.565C96.6691 114.519 113.546 97.4444 113.555 76.5278C113.555 55.6111 96.6783 38.6296 75.9358 38.6852ZM76 112.139C56.5522 112.194 40.7864 96.3241 40.7956 76.7037C40.8048 57.0926 56.5706 41.1482 76.0184 41.1019C95.4663 41.0556 111.232 56.9167 111.232 76.5278C111.223 96.1482 95.4571 112.093 76 112.139Z" fill="#31287C"/>
<path d="M17.0965 36.6667L12.4595 36.5L14.5989 40.6574L17.0965 36.6667Z" fill="#31287C"/>
<path d="M137.557 40.6111L139.724 36.4537L135.078 36.6019L137.557 40.6111Z" fill="#31287C"/>
<path d="M76.0092 33.8889C52.6039 33.9537 33.6519 53.1297 33.6519 76.7223C33.6519 100.324 52.6039 119.407 76 119.343C99.3962 119.287 118.367 100.111 118.376 76.5185C118.367 52.9167 99.4054 33.8334 76.0092 33.8889ZM75.9358 117.528C53.5772 117.583 35.3873 99.2685 35.3965 76.7223C35.3965 54.176 53.5772 35.7871 75.945 35.7315C98.3035 35.676 116.493 53.9722 116.493 76.5185C116.484 99.0648 98.2944 117.472 75.9358 117.528Z" fill="#31287C"/>
<path d="M72.6668 107.602C71.5007 106.25 72.0792 102.87 69.4714 102.87C68.9021 104.796 67.3228 106.481 67.8462 108.537C69.8479 110.528 73.2545 110.37 75.9173 110.157C77.6987 108.426 77.111 105.556 76.7345 103.519C74.3288 103.324 74.5951 106.556 72.6668 107.602ZM69.903 107.833C69.5724 107.704 69.3704 107.491 69.3429 107.13C69.5357 106.315 70.7202 106.565 70.6651 107.306C70.5182 107.648 70.2427 107.815 69.903 107.833ZM74.944 108.5C74.5216 108.389 74.3747 107.963 74.5124 107.611C74.742 107 75.8163 107.278 75.7061 107.972C75.5041 108.167 75.3388 108.833 74.944 108.5Z" fill="#31287C"/>
<path d="M100.755 86.6945C100.177 87.3426 100.076 88.1296 99.7727 88.8611C100.737 90.1019 102.27 91.0185 102.895 92.5278C100.691 93.213 97.5138 91.0556 96.412 94.0833C97.3118 95.4352 99.2768 96.0463 100.415 97.2963C101.637 97.75 103.179 97.0556 103.794 95.8333C104.511 93.4074 107.926 91.1204 105.971 88.6574L100.755 86.6945ZM101.738 95.2593C101.499 95.6204 101.187 96.1019 100.737 95.8889C100.076 95.463 100.241 94.7037 100.801 94.4815C101.159 94.4537 101.866 94.6667 101.738 95.2593ZM104.887 91.0185C104.474 91.5185 104.143 91.1204 103.73 90.8519C103.39 90.463 103.85 89.75 104.382 89.8333C104.915 89.9259 104.961 90.6389 104.887 91.0185Z" fill="#31287C"/>
<path d="M94.9888 95.5277C92.7942 96.9814 95.0622 99.7499 95.2551 101.407C93.4829 101.435 91.977 99.4351 90.1406 99.6759C89.6907 99.9721 89.1122 100.63 89.3326 101.194C90.7007 102.852 90.5262 106.657 93.639 105.889C95.6958 104.259 97.7343 102.676 99.3503 100.426C99.5248 98.0555 96.917 96.8703 94.9888 95.5277ZM92.8769 104.185C92.4729 104.028 92.3443 103.593 92.4729 103.25C92.7024 102.63 93.7492 102.972 93.6298 103.676C93.5472 103.944 93.235 104.167 92.8769 104.185ZM97.9087 99.8981C97.7343 100.305 97.3027 100.435 96.9813 100.315C96.5497 99.9444 96.9079 99.2499 97.4037 99.1388C97.5965 99.361 98.175 99.4814 97.9087 99.8981Z" fill="#31287C"/>
<path d="M84.4568 106.954L83.9701 107.065C82.5652 105.546 81.647 102.148 78.874 103.306C78.3965 105.222 78.4975 107.574 79.0209 109.361C81.5736 111.806 85.4392 109.481 88.4051 108.685C91.7382 106.518 87.7991 103.602 87.3767 101.111C84.6037 101.509 85.2281 104.991 84.4568 106.954ZM81.4634 108.065C81.1787 107.981 80.5819 108.259 80.5543 107.657C80.4901 107.102 81.1328 106.759 81.5919 106.954C81.9133 107.259 81.8123 107.796 81.4634 108.065ZM87.7072 106.63C87.4869 106.565 87.34 106.806 87.2573 106.926C86.8258 107.074 86.4126 106.546 86.587 106.148C86.8992 105.157 88.1296 105.861 87.7072 106.63Z" fill="#31287C"/>
<path d="M45.9008 86.6944C46.8282 85.5185 48.2331 84.8981 49.2706 83.9629C49.1145 82.9999 48.7748 82.0925 48.8391 81.2129L44.5694 82.074C43.7889 82.7592 43.44 83.3055 43.1829 84.2407C44.3215 86.6851 44.8448 89.4999 46.3323 91.6666C48.5177 92.8425 49.9777 90.4629 51.7315 89.824C51.7223 86.1573 47.526 88.361 45.9008 86.6944ZM45.1019 83.8703C45.2397 83.0277 46.4793 83.3147 46.3232 84.074C46.1854 84.4259 45.9834 84.6203 45.6253 84.6388C45.2948 84.5092 45.1295 84.2314 45.1019 83.8703ZM47.6454 89.8796L47.1128 89.5277L47.6821 88.6203C47.976 88.8147 48.38 88.9999 48.3249 89.4629C48.2973 89.7962 47.9392 89.8147 47.6454 89.8796Z" fill="#31287C"/>
<path d="M52.4385 97.4907C52.1079 97.3611 51.4468 97.6111 51.557 96.9074L53.4577 93.0463C53.017 91.6481 51.8325 91.1296 50.7398 92.2963C49.6104 93.2592 47.8749 93.7407 48.2422 95.5092C50.0144 97.6018 51.8049 100.056 54.0178 101.593C56.0195 101.111 56.7174 98.8518 58.1131 97.4629C56.7174 94.9259 54.229 97.4722 52.4385 97.4907ZM51.1989 94.9815C51.1254 95.3611 50.8132 95.3241 50.5102 95.3796C50.1888 95.0926 49.7389 94.3611 50.5102 94.2037C50.951 94.0555 51.3642 94.5926 51.1989 94.9815ZM55.1105 98.9907C55.0738 99.3148 54.6606 99.2963 54.431 99.3981C54.1188 99.1852 53.926 98.9815 53.9076 98.6296C54.027 97.7685 55.5512 98.1666 55.1105 98.9907Z" fill="#31287C"/>
<path d="M61.079 104.509C60.5005 103.194 61.4004 101.657 61.6024 100.167L59.1599 98.5648L56.7174 102.093C56.1849 105.407 60.8953 106.343 62.9889 108.065L64.2193 108.009C66.8178 107.491 66.6158 104.546 67.6534 102.667C65.2018 100.722 63.347 104.12 61.079 104.509ZM58.4712 102.806C58.407 102.5 58.7559 101.963 59.1874 102.074C59.518 102.222 59.6833 102.491 59.7108 102.843C59.417 103.167 58.7008 103.63 58.4712 102.806ZM64.4672 105.528C64.3111 105.769 64.0815 106.13 63.7877 105.917C63.4847 105.731 63.2919 105.519 63.2643 105.167C63.5949 104.537 64.7151 104.759 64.4672 105.528Z" fill="#31287C"/>
<path d="M50.2348 81.5278C52.6406 81.9908 55.7992 81.4074 58.3427 81.1111L57.9662 77.3796C55.386 76.7963 52.5028 77.2037 49.9502 77.25L50.2348 81.5278Z" fill="#31287C"/>
<path d="M102.592 75.1203C102.95 75.8703 102.472 76.4907 102.619 77.1759C104.079 78.0555 105.98 78.6111 107.008 79.7963C105.282 80.3703 103.703 81.1296 101.829 81.5277C101.664 82.7037 100.801 83.9166 101.251 85.0648C103.243 85.5092 105.006 86.8333 107.173 86.4629C109.037 85.3889 108.982 83.1389 109.441 81.3888C109.552 79.4907 109.552 77.287 109.175 75.5C107.614 73.2129 104.593 74.8888 102.592 75.1203ZM106.641 83.8888L106.301 84.4351C105.741 84.5 105.043 83.8703 105.539 83.3518C105.741 82.7963 107.109 83.0185 106.641 83.8888ZM107.862 77.2963C107.697 77.9537 107.183 77.6944 106.806 77.6203C106.365 77.25 106.476 76.2963 107.247 76.2777C107.596 76.5092 108.073 76.8333 107.862 77.2963Z" fill="#31287C"/>
<path d="M50.1798 75.3426C52.7324 75.8148 55.1841 75.2963 57.7734 75.2037L57.7183 71.5C55.5146 71 53.1364 71.3982 50.9786 70.9445C50.4093 72.3519 49.8309 73.9259 50.1798 75.3426Z" fill="#31287C"/>
<path d="M90.673 48.2222C90.9301 49.25 90.6088 50.1481 90.2874 51.037C89.3783 53 90.3425 54.4907 92.3534 55.037L95.5855 50.4167C96.0538 48.25 93.6389 47.787 92.3258 46.6759C90.4251 46.1018 88.6438 44.4259 86.5502 44.9259C84.6403 46.0741 84.4659 48.6944 83.6946 50.6574C86.3574 52.5648 88.2673 48.6852 90.673 48.2222ZM93.5103 50.5C93.3542 51 93.0512 50.8055 92.7023 50.8241C92.3626 50.6944 92.4085 50.3704 92.2983 50.1389C92.5003 49.1667 94.1255 49.8055 93.5103 50.5ZM86.9267 47.2222C87.0553 46.3704 88.2949 46.6574 88.1388 47.4167C87.9459 47.9815 87.5236 48.1296 87.0644 47.9167C87.0828 47.6574 86.8073 47.4074 86.9267 47.2222Z" fill="#31287C"/>
<path d="M93.9603 56.0741C95.4937 58.5371 98.1749 55.6852 100.131 55.2686L100.553 55.5371C100.434 57.8334 96.2651 60.2223 99.2584 62.2778C100.948 60.8149 104.465 60.9815 104.41 58.0463C103.179 55.3704 100.847 53.5001 98.7167 51.4352C96.1273 51.2686 94.9153 54.3334 93.9603 56.0741ZM102.334 57.463C102.748 57.7501 102.784 58.1019 102.656 58.5371C102.27 58.8797 101.471 58.9445 101.38 58.3056C101.279 57.7963 101.967 57.3982 102.334 57.463ZM98.8177 54.1575C98.6891 54.4908 98.4045 54.6575 98.0648 54.676C97.7617 54.4815 97.4404 54.1852 97.6148 53.7871C97.7342 53.3519 98.2209 53.2501 98.4963 53.3426C98.5698 53.6389 99.1207 53.8241 98.8177 54.1575Z" fill="#31287C"/>
<path d="M100.333 65.0277C100.709 67.574 103.877 65.8148 105.649 66.2036C105.264 68.2499 103.051 68.9259 102.013 70.5555C102.417 71.4814 101.976 72.574 102.693 73.287L107.21 72.574C110.553 70.4999 107.44 66.4259 107.32 63.6111C106.834 61.3425 104.153 61.4629 102.491 62.324C101.591 62.9536 99.2769 63.1388 100.333 65.0277ZM106.255 70.2592C106.072 70.6574 105.704 71.1018 105.264 70.8796C105.199 70.5833 104.97 70.2685 104.942 70.074C105.098 69.6759 105.53 69.537 105.87 69.6574C106.182 69.6944 106.145 70.0185 106.255 70.2592ZM103.794 63.9629C104.061 63.7129 104.162 63.2685 104.566 63.4444C104.869 63.6296 105.062 63.8518 105.08 64.2129C104.896 64.7685 104.456 64.9074 104.006 64.7036C103.767 64.5462 103.648 64.2036 103.794 63.9629Z" fill="#31287C"/>
<path d="M66.1107 47.0741C67.4789 47.9815 68.3879 49.5741 69.6826 50.6852C70.3345 50.6018 70.7753 50.287 71.2436 50.0926C70.8579 47.787 71.8037 44.5 69.2419 43.2407C66.0465 43.8796 62.0706 44.6944 60.5004 47.9166C60.3627 50.2222 62.0339 51.8148 63.1724 53.5926C67.2861 53.3796 64.7793 49.0092 66.1107 47.0741ZM67.7819 45.7963C68.0849 45.0463 69.3704 45.5555 68.9021 46.2592C68.6083 46.3333 68.4614 46.5741 68.1033 46.5926C67.5523 46.4074 67.7452 46.1111 67.7819 45.7963ZM62.5848 48.8703C62.5664 48.5092 62.8602 47.6852 63.3194 47.9907C63.9162 48.1296 63.7601 48.6203 63.6958 49.0092C63.301 49.0833 62.8327 49.2778 62.5848 48.8703Z" fill="#31287C"/>
<path d="M55.2574 60.2592C57.9662 58.7962 54.633 56.1018 54.8993 53.8888C57.2224 53.8055 59.8301 57.2036 61.639 54.6388L58.6916 49.824C55.3768 48.4073 53.2649 52.7499 50.9877 54.8425C50.9418 57.5369 53.3567 58.7592 55.2574 60.2592ZM57.9753 52.2314C57.6999 52.6573 57.351 52.6851 56.9102 52.5647C56.699 52.5092 56.7358 52.2036 56.699 51.9999C57.0204 51.361 58.0029 51.4073 57.9753 52.2314ZM52.714 55.6944C52.8701 54.9444 54.1372 55.1758 53.8801 56.111C53.5771 56.1758 53.3659 56.6388 53.0537 56.3518C52.8792 56.2221 52.4201 56.0277 52.714 55.6944Z" fill="#31287C"/>
<path d="M49.7391 69.3519C52.3652 66.7222 47.7741 65.6019 47.517 63.3889C49.785 62.4815 53.2375 65.7593 54.073 61.7222C52.3284 60.4908 50.8226 57.4537 48.2424 58.5833C46.562 60.8056 45.2949 63.5556 44.5603 66.1482C45.2857 68.4074 47.9853 68.5463 49.7391 69.3519ZM49.8584 60.3889C50.0972 60.8056 50.1155 60.9167 50.0696 61.3889L49.1238 61.5278C48.7657 61.0371 49.2708 60.2685 49.8584 60.3889ZM46.3416 65.8519C46.6906 65.3056 47.6272 65.9352 47.4251 66.3889C47.2874 66.7315 47.0119 66.8982 46.663 66.9167C46.259 66.6482 46.2223 66.2871 46.3416 65.8519Z" fill="#31287C"/>
<path d="M47.315 79.7778C48.2975 79.8241 48.7382 78.7501 48.5913 77.7964C47.0028 76.3427 45.0745 76.176 43.6329 75.1482C45.0194 73.926 46.9844 73.6019 48.4811 72.6112C50.3543 70.0927 46.1121 70.389 44.9735 69.2871C44.0461 69.2871 43.0912 69.8519 42.6872 70.8704C42.3474 73.6297 41.824 76.5371 42.5219 79.3704C43.6146 81.1019 45.8275 80.0093 47.315 79.7778ZM44.9827 71.0927C45.2857 71.2871 45.4694 71.5093 45.4969 71.8612C45.1388 72.0464 44.9001 72.9167 44.3859 72.4075C44.0737 71.8704 44.3308 71.0834 44.9827 71.0927ZM44.6154 77.676C44.9184 77.8704 45.5887 78.139 45.0654 78.5741C44.9276 79.0741 44.6154 78.8704 44.3032 78.8427C43.8625 78.463 43.9635 77.6667 44.6154 77.676Z" fill="#31287C"/>
<path d="M80.9491 52.6852C74.7695 53.5185 69.8387 56.5926 65.5781 60.4444L65.872 60.6389C71.1884 58.8333 76.4498 59.2963 81.096 56.537C81.2429 55.2685 81.3623 53.9074 80.9491 52.6852Z" fill="#31287C"/>
<path d="M72.5291 85.3426C74.7879 86.3981 80.6278 88.0648 82.5561 87.4352C82.5561 87.4352 82.6662 81.0926 82.9325 78.1018C86.587 77.9259 87.2849 78.0555 90.7649 77.3518C91.7566 77.2315 92.3442 76.5555 91.9311 75.287C89.7641 70.6481 86.9176 67.9815 83.4008 65.537C80.1687 64.2778 81.3348 61.037 80.9124 59.0555L78.6169 59.7592L78.9016 59.9629C80.2789 60.6944 80.3523 62.9444 80.1779 64.2685C80.1595 66.1296 77.2304 66.3518 78.4516 68.25C78.2313 68.7037 77.8364 68.9537 77.3314 68.9629C72.9974 66.1296 68.1401 65.1667 63.7051 62.8704C61.4554 65.0648 59.619 68.5463 59.2517 71.6296C59.3252 78.5926 59.9679 86.5092 64.5774 91.9074C68.4339 97.5741 75.5684 101.565 82.2622 101.259C82.7489 95.5278 81.8949 95.0926 82.5928 89.4166C77.2396 88.8241 74.9349 88.6944 70.959 86.2778C70.6651 85.8241 70.252 85.4722 70.8212 84.9815C71.2344 84.5833 72.1343 85.1759 72.5291 85.3426ZM75.4215 79.75C75.045 79.9352 74.7788 80.3518 74.4298 80.1296C74.0166 79.9444 73.5943 79.5741 73.8055 79.1111C74.2737 78.3981 76.1194 78.6759 75.4215 79.75ZM76.5876 77.5C76.2204 77.6759 75.9449 78.1018 75.596 77.8611C75.2011 77.6944 74.7696 77.3241 74.9808 76.8611C75.4399 76.1389 77.2947 76.4167 76.5876 77.5ZM75.7888 75.1296C75.7612 74.7778 76.0367 74.0926 76.6152 74.2222C76.9182 74.4167 77.313 74.5926 77.2579 75.0648C76.9641 75.6574 76.0734 76.0092 75.7888 75.1296ZM77.1753 72.9722C77.0651 73.3981 76.6336 73.5555 76.303 73.4167C75.8623 73.3055 75.8714 72.6296 75.9724 72.3518C76.3122 71.5555 77.6436 72.25 77.1753 72.9722ZM76.1561 70.25C76.5509 70.6759 76.404 71.4352 75.8255 71.6667L74.9349 71.0741C74.9716 70.5092 75.5868 69.8148 76.1561 70.25ZM73.8238 69.1481C73.934 68.7129 74.3564 68.5741 74.6961 68.7129C75.1369 68.8241 75.1552 69.4352 75.0634 69.7129C74.9624 70.1574 74.2829 70.1389 74.0166 70.0463C73.9432 69.75 73.3739 69.4537 73.8238 69.1481ZM73.4473 80.3333C73.8789 80.4537 74.0258 80.8889 73.8881 81.2222C73.6769 81.9352 73.0984 81.8148 72.6026 81.6481C72.2537 81 72.7679 80.2315 73.4473 80.3333ZM72.3363 67.9352C72.8781 68.1296 73.1076 68.6852 72.9607 69.1852C72.6577 69.7685 71.7119 69.4074 71.5558 68.8796C71.3354 68.3055 72.0976 68.2778 72.3363 67.9352ZM63.852 71.4167C64.2927 71.3704 64.9447 71.7963 64.66 72.3796C64.5498 72.8148 64.0999 72.6018 63.7234 72.7963C63.1909 72.4352 63.1174 71.6204 63.852 71.4167ZM62.493 73.7685C63.1266 72.6481 64.4396 74.2685 63.2368 74.8518C62.8603 74.5092 61.9696 74.4537 62.493 73.7685ZM61.887 76.2685C61.9972 75.3241 63.4112 75.4815 63.2827 76.3426C63.1725 76.7778 62.7134 76.8241 62.4104 77.0555C62.1165 76.8518 61.9145 76.6296 61.887 76.2685ZM62.8328 79.5185C62.392 79.4074 62.3828 78.7963 62.5114 78.4722L63.0348 78.037L63.7877 78.7037C63.6867 79.2407 63.4388 79.5092 62.8328 79.5185ZM64.0081 81.5C63.246 81.2407 63.5857 80.7037 63.7234 80.1111C64.1825 79.8055 64.8896 80.2778 64.8528 80.8518C64.6508 81.1481 64.4855 81.5463 64.0081 81.5ZM65.2569 71.0555C64.9263 71.0092 64.963 70.7037 64.8712 70.4629C65.0916 69.3241 66.5699 69.787 66.1383 70.6018C66.019 71.0463 65.5874 71.1944 65.2569 71.0555ZM67.0841 82.7407C66.7811 82.7963 66.6434 83.037 66.2669 82.9722C65.7343 82.8704 65.7068 82.2592 65.7802 81.8796C66.3036 80.9352 67.7269 81.8796 67.0841 82.7407ZM66.9647 69.963C66.726 69.8055 66.8086 69.4352 66.6985 69.1944C66.8637 68.287 68.8195 68.537 68.0207 69.6389C67.9105 70.0648 67.2402 70.0648 66.9647 69.963ZM69.4806 82.6852C69.2878 82.9907 69.1776 83.4259 68.7002 83.3796C68.3421 83.1296 68.1217 82.8148 68.0758 82.3704C68.3145 81.2407 69.9673 81.8055 69.4806 82.6852ZM69.7561 67.8611C70.2795 67.9444 70.509 68.2592 70.5733 68.8148C70.4264 69.3148 69.9489 69.25 69.5817 69.4444C68.8287 69.0463 69.1409 68.1481 69.7561 67.8611ZM70.2428 82.1574C70.5182 81.0555 71.9598 81.5741 71.6752 82.4167C71.5558 82.75 71.3354 82.9537 70.9865 82.9815C70.6284 82.75 70.1877 82.6389 70.2428 82.1574Z" fill="#31287C"/>
<path d="M68.1768 100.824C70.7753 101.759 73.5208 101.944 76.2479 102.028C73.5483 101.778 71.0508 98.6017 68.1768 100.824Z" fill="#31287C"/>
<path d="M83.9885 98.213C84.0069 98.6112 84.0253 99.0279 84.0436 99.4445C84.8517 99.6204 85.6321 99.8427 86.3943 99.9075C87.8083 99.2871 89.1214 98.5093 90.3426 97.5927C88.2399 97.3612 85.6138 96.4538 83.9885 98.213Z" fill="#31287C"/>
<path d="M69.1961 98.8519C67.6075 95.4259 64.0173 97.6019 61.5198 97.6667L63.1909 98.7593C64.8896 100.815 67.0107 99.213 69.1961 98.8519Z" fill="#31287C"/>
<path d="M94.1808 93.9259C91.2884 93.6204 85.7424 93.1852 84.209 93.8889C84.1263 93.9259 84.0437 93.9722 83.9702 94.0278C83.9518 94.6944 83.9427 95.3796 83.9518 96.0926C86.0913 96.1574 89.4152 96.6574 92.023 96.2037C92.7943 95.4907 93.5013 94.7222 94.1808 93.9259Z" fill="#31287C"/>
<path d="M65.3946 95.6945C64.9814 91.5001 59.8302 93.7501 57.0388 94.1482C58.9487 97.8612 62.5665 95.3797 65.3946 95.6945Z" fill="#31287C"/>
<path d="M97.5598 88.8148L84.1905 88.4814C84.1262 89.6759 84.0712 90.8333 84.0344 92.0277C87.9185 92.1666 92.8952 92.2222 95.3928 92.3518C96.2008 91.2315 96.917 90.0463 97.5598 88.8148Z" fill="#31287C"/>
<path d="M55.8819 92.5278C58.2234 92.1944 60.6383 92.2315 62.5574 91.6204L60.5557 88.4352L53.1365 88.9537C54.0088 90.2037 54.3393 91.787 55.8819 92.5278Z" fill="#31287C"/>
<path d="M99.8187 83.213C95.7969 82.8704 87.7441 83 84.3559 82.8704C84.3467 84.3333 84.31 85.6944 84.2549 87L98.3036 87.2685C98.9005 85.9444 99.4055 84.5833 99.8187 83.213Z" fill="#31287C"/>
<path d="M52.7048 87.3981L59.8852 86.9814C59.3159 85.75 59.2425 83.9166 58.2508 82.8518C55.7624 83.1851 52.87 82.824 50.6479 83.6666C51.5019 84.824 51.6396 86.6944 52.7048 87.3981Z" fill="#31287C"/>
<path d="M100.709 79.4723L100.81 77.0741C99.0472 77.0464 96.4211 76.9908 93.7215 76.9723C93.5838 77.6019 93.2257 78.1204 92.5738 78.2593C88.9101 79.8797 88.1847 79.1482 84.3098 79.5278C84.3282 80.0834 84.3465 80.6204 84.3465 81.1482C87.8909 81.389 96.1732 81.676 100.259 81.5464C100.434 80.8519 100.581 80.1667 100.709 79.4723Z" fill="#31287C"/>
<path d="M100.994 73.2686C100.975 72.4538 100.893 71.6853 100.792 70.926C98.7809 71.0557 95.0529 71.0742 91.582 71.102C92.2982 72.1483 92.9502 73.2871 93.5378 74.5464C93.6113 74.8057 93.6847 75.0834 93.7398 75.389C96.421 75.4446 99.0839 75.4353 100.893 75.3705L100.994 73.2686Z" fill="#31287C"/>
<path d="M51.502 69.4723L58.0397 69.6667C58.4712 68.3334 59.0956 66.8519 59.4537 65.6482L54.1556 65.0834C53.0997 66.3519 51.9611 67.7315 51.502 69.4723Z" fill="#31287C"/>
<path d="M85.9075 65.4352C87.5694 66.6204 89.057 67.9445 90.3608 69.4908L100.516 69.3426C100.167 67.7871 99.644 66.3241 98.9645 64.9445L85.9075 65.4352Z" fill="#31287C"/>
<path d="M66.4321 62.2871L71.767 64.4908C71.2803 63.1574 71.7945 61.963 72.6852 60.8334L66.4321 62.2871Z" fill="#31287C"/>
<path d="M73.3005 63.0278C73.0618 64.3148 73.9892 65.0926 75.0818 65.6296C76.3123 65.9352 77.6804 65.6296 78.3232 64.2592C78.819 62.7129 77.9191 60.8426 76.2939 60.8796C74.7237 60.287 73.9983 61.9352 73.3005 63.0278Z" fill="#31287C"/>
<path d="M55.0923 63.6575L60.7026 64.0001C61.3545 62.7223 62.337 61.8334 63.191 60.7686C61.529 60.3704 59.7293 60.389 58.0214 60.0371C57.0297 61.1667 55.3769 62.3056 55.0923 63.6575Z" fill="#31287C"/>
<path d="M82.5927 60.4074C82.4366 61.7222 82.3447 63 83.4833 63.8426L98.1748 63.5092C97.4127 62.2222 96.5037 61.0092 95.4936 59.9166C93.6572 60.1574 86.7797 60.2314 82.5927 60.4074Z" fill="#31287C"/>
<path d="M59.5547 58.5464C62.5297 58.7964 65.6976 59.5001 67.7452 56.5741C65.9547 56.3427 64.3019 55.7778 62.5113 55.7871L59.5547 58.5464Z" fill="#31287C"/>
<path d="M82.7397 56.4815C82.6846 56.8333 82.6295 57.1852 82.5469 57.5278C82.7213 58 82.7489 58.4908 82.7305 59C85.375 59.1852 92.0229 58.6019 94.0154 58.4352C92.9227 57.4259 91.729 56.5093 90.4711 55.6945C88.7448 55.8056 85.3933 56.1759 82.7397 56.4815Z" fill="#31287C"/>
<path d="M65.0916 54.4352C67.6075 54.4537 70.3529 55.8241 72.4924 53.5463C70.0958 52.676 67.1575 52.5371 65.0916 54.4352Z" fill="#31287C"/>
<path d="M88.0836 54.3055C87.0277 53.75 85.9442 53.2685 84.8423 52.8425C84.1812 52.7777 83.4926 52.8148 82.8223 52.9166C82.8314 53.4722 82.859 54.037 82.8498 54.6203C84.5026 55 86.339 54.3703 88.0836 54.3055Z" fill="#31287C"/>
<path d="M78.9383 51.3796C76.6427 51.3981 73.833 50.7685 72.0884 51.6666L74.8063 52.4166L78.9383 51.3796Z" fill="#31287C"/>
<path d="M77.8364 45.2129L78.571 45C78.6169 45.9722 79.4525 47.0278 79.0576 48.0463C78.7271 50.1296 80.7655 50.0926 82.0143 50.1389C82.2989 47.8518 85.1546 45.3796 83.0151 43.2129C80.1228 42.3426 77.1294 42.0092 73.9982 42.4259C71.8588 44.1852 72.5934 47.2222 73.0984 49.8518C75.8439 50.287 76.1193 46.4629 77.8364 45.2129ZM80.2788 45.5185C80.6186 44.9815 81.7572 45.037 81.7296 45.8704C81.5368 46.1666 81.3256 46.3796 80.9675 46.3981C80.6186 46.1574 80.2146 46 80.2788 45.5185ZM75.9632 44.7407C75.6786 45.1666 75.3388 45.1852 74.9073 45.0741C74.6961 45.0092 74.7236 44.7037 74.6777 44.5C74.7695 43.4537 76.0367 44.1111 75.9632 44.7407Z" fill="#31287C"/>
<path d="M134.729 36.1018L136.602 31.7963L131.956 32.2963L134.729 36.1018Z" fill="#31287C"/>
<path d="M120.919 15.8518L116.631 17.6944L120.368 20.5277L120.919 15.8518Z" fill="#31287C"/>
<path d="M124.381 23.9908L125.262 19.3889L120.855 20.9074L124.381 23.9908Z" fill="#31287C"/>
<path d="M128.136 27.7685L129.348 23.2407L124.84 24.4166L128.136 27.7685Z" fill="#31287C"/>
<path d="M131.571 31.8054L133.122 27.3702L128.54 28.2221L131.571 31.8054Z" fill="#31287C"/>
<path d="M27.3988 24.4538L22.8904 23.2778L24.0841 27.8056L27.3988 24.4538Z" fill="#31287C"/>
<path d="M23.6616 28.2686L19.0889 27.4167L20.6131 31.8519L23.6616 28.2686Z" fill="#31287C"/>
<path d="M20.2275 32.3334L15.6089 31.8334L17.4453 36.1482L20.2275 32.3334Z" fill="#31287C"/>
<path d="M35.6259 17.7315L31.3562 15.8889L31.8796 20.5556L35.6259 17.7315Z" fill="#31287C"/>
<path d="M31.3839 20.9353L26.9856 19.4353L27.8395 24.0372L31.3839 20.9353Z" fill="#31287C"/>
<path d="M40.0978 14.8518L35.9658 12.6852L36.1311 17.3796L40.0978 14.8518Z" fill="#31287C"/>
<path d="M116.301 12.6666L112.178 14.8148L116.117 17.3518L116.301 12.6666Z" fill="#31287C"/>
<path d="M40.8047 9.85181L40.6211 14.5277L44.7439 12.3148L40.8047 9.85181Z" fill="#31287C"/>
<path d="M111.489 9.8241L107.532 12.2871L111.645 14.5093L111.489 9.8241Z" fill="#31287C"/>
<path d="M45.8367 7.37036L45.2949 12.037L49.6014 10.1111L45.8367 7.37036Z" fill="#31287C"/>
<path d="M106.476 7.34265L102.702 10.1112L106.981 12.0093L106.476 7.34265Z" fill="#31287C"/>
<path d="M51.0337 5.27783L50.1614 9.8982L54.578 8.30561L51.0337 5.27783Z" fill="#31287C"/>
<path d="M101.278 5.25928L97.725 8.29631L102.132 9.87965L101.278 5.25928Z" fill="#31287C"/>
<path d="M56.3684 3.60181L55.1655 8.12033L59.6832 6.87958L56.3684 3.60181Z" fill="#31287C"/>
<path d="M95.9437 3.58337L92.6198 6.87041L97.1282 8.10189L95.9437 3.58337Z" fill="#31287C"/>
<path d="M61.8226 2.3241L60.28 6.75002L64.8711 5.84262L61.8226 2.3241Z" fill="#31287C"/>
<path d="M90.4528 2.29626L87.386 5.8333L91.9862 6.73145L90.4528 2.29626Z" fill="#31287C"/>
<path d="M67.3503 1.45374L65.4863 5.75003L70.1417 5.20374L67.3503 1.45374Z" fill="#31287C"/>
<path d="M84.8883 1.4259L82.0969 5.20368L86.7431 5.73146L84.8883 1.4259Z" fill="#31287C"/>
<path d="M79.2873 1L76.7805 4.9537L81.4451 5.12963L79.2873 1Z" fill="#31287C"/>
<path d="M72.9331 1L70.7385 5.13889L75.4306 4.9537L72.9331 1Z" fill="#31287C"/>
</svg>
