<svg width="104" height="18" viewBox="0 0 104 18" fill="none" xmlns="http://www.w3.org/2000/svg">
<path d="M12.6403 0.952H14.9083V13.516H12.6403V0.952ZM10.6963 6.19H13.3423V8.116H10.6963V6.19ZM9.20233 1.24H11.4343V13.21H9.20233V1.24ZM0.634328 2.68H8.71633V4.534H0.634328V2.68ZM4.70233 5.074C6.77233 5.074 8.30233 6.352 8.30233 8.206C8.30233 10.06 6.77233 11.374 4.70233 11.374C2.63233 11.374 1.10233 10.06 1.10233 8.206C1.10233 6.352 2.63233 5.074 4.70233 5.074ZM4.70233 6.874C3.83833 6.874 3.22633 7.342 3.22633 8.206C3.22633 9.07 3.83833 9.556 4.70233 9.556C5.54833 9.556 6.16033 9.07 6.16033 8.206C6.16033 7.342 5.54833 6.874 4.70233 6.874ZM3.49633 1.096H5.85433V3.976H3.49633V1.096ZM3.69433 15.406H15.3403V17.314H3.69433V15.406ZM3.69433 12.364H6.08833V16.306H3.69433V12.364ZM19.0289 8.62H30.7469V10.528H19.0289V8.62ZM17.2829 13.642H32.3669V15.604H17.2829V13.642ZM19.0289 2.302H30.6209V4.246H21.4049V9.412H19.0289V2.302ZM35.5335 2.392H46.0275V4.3H35.5335V2.392ZM33.8415 13.678H48.9075V15.64H33.8415V13.678ZM45.0195 2.392H47.3775V4.318C47.3775 6.748 47.3775 9.052 46.6035 12.688L44.2455 12.472C45.0195 9.106 45.0195 6.676 45.0195 4.318V2.392ZM45.5235 6.964V8.728L35.3355 9.232L35.0475 7.306L45.5235 6.964ZM61.8301 0.934H64.2421V10.816H61.8301V0.934ZM51.2461 8.332H52.7041C55.9441 8.332 58.0501 8.278 60.4621 7.882L60.7321 9.772C58.2481 10.204 56.0341 10.276 52.7041 10.276H51.2461V8.332ZM51.2281 1.888H58.8961V6.91H53.6041V9.484H51.2461V5.128H56.5381V3.778H51.2281V1.888ZM53.1541 11.572H64.2421V17.422H53.1541V11.572ZM61.8841 13.444H55.4941V15.532H61.8841V13.444ZM71.6345 13.732H86.7185V15.676H71.6345V13.732ZM77.9525 10.042H80.3465V14.182H77.9525V10.042ZM73.2005 2.158H85.0625V10.348H73.2005V2.158ZM82.7225 4.066H75.5585V8.458H82.7225V4.066ZM95.7171 1.24C99.3891 1.24 101.747 2.482 101.747 4.498C101.747 6.514 99.3891 7.738 95.7171 7.738C92.0451 7.738 89.6871 6.514 89.6871 4.498C89.6871 2.482 92.0451 1.24 95.7171 1.24ZM95.7171 3.094C93.4311 3.094 92.1531 3.544 92.1531 4.498C92.1531 5.434 93.4311 5.902 95.7171 5.902C97.9851 5.902 99.2811 5.434 99.2811 4.498C99.2811 3.544 97.9851 3.094 95.7171 3.094ZM89.9211 11.734H101.441V17.422H89.9211V11.734ZM99.1011 13.624H92.2791V15.532H99.1011V13.624ZM88.1751 8.692H103.241V10.582H88.1751V8.692Z" fill="#555555"/>
</svg>
