<svg width="142" height="24" viewBox="0 0 142 24" fill="none" xmlns="http://www.w3.org/2000/svg">
<path d="M15.1553 0.863999H18.3473V23.16H15.1553V0.863999ZM17.0513 9.216H20.9633V11.832H17.0513V9.216ZM0.92325 15.096H2.05125C3.75525 15.096 5.09925 15.072 6.75525 14.736L6.99525 17.328C5.24325 17.688 3.85125 17.712 2.05125 17.712H0.92325V15.096ZM0.92325 3.144H6.63525V5.664H4.09125V16.272H0.92325V3.144ZM7.78725 15.096H8.96325C11.4833 15.096 12.6593 15.048 14.0513 14.688L14.2913 17.28C12.8273 17.664 11.6273 17.712 8.96325 17.712H7.78725V15.096ZM7.78725 3.144H13.7633V5.664H10.9313V16.32H7.78725V3.144ZM22.5694 11.184H42.6574V13.752H22.5694V11.184ZM33.2494 7.248H40.9054V9.768H33.2494V7.248ZM33.2494 1.944H40.8094V4.464H36.4414V8.184H33.2494V1.944ZM24.4414 1.944H32.1454V4.464H27.6334V8.184H24.4414V1.944ZM24.4414 7.248H25.8094C28.3294 7.248 30.1294 7.2 32.2414 6.768L32.5294 9.264C30.2974 9.72 28.4254 9.768 25.8094 9.768H24.4414V7.248ZM31.0414 15.024H33.7774V15.408C33.7774 19.32 30.7294 22.272 25.0894 23.04L23.9614 20.568C28.8814 19.992 31.0414 17.736 31.0414 15.408V15.024ZM31.5454 15.024H34.2814V15.408C34.2814 17.736 36.4414 19.992 41.3854 20.568L40.2334 23.04C34.5934 22.272 31.5454 19.32 31.5454 15.408V15.024ZM58.9515 0.935999H62.1435V17.544H58.9515V0.935999ZM61.2315 7.704H65.0955V10.32H61.2315V7.704ZM44.6475 3.24H57.7275V5.736H44.6475V3.24ZM51.1995 6.528C54.3915 6.528 56.6475 8.28 56.6475 10.824C56.6475 13.368 54.3915 15.096 51.1995 15.096C47.9835 15.096 45.7275 13.368 45.7275 10.824C45.7275 8.28 47.9835 6.528 51.1995 6.528ZM51.1995 8.952C49.7835 8.952 48.7995 9.624 48.7995 10.824C48.7995 12.024 49.7835 12.672 51.1995 12.672C52.6155 12.672 53.5995 12.024 53.5995 10.824C53.5995 9.624 52.6155 8.952 51.1995 8.952ZM49.5915 0.887999H52.7835V4.464H49.5915V0.887999ZM47.8155 20.208H62.9355V22.752H47.8155V20.208ZM47.8155 16.296H51.0075V21.312H47.8155V16.296ZM77.832 6.672H80.304V7.824C80.304 12.504 78.312 17.232 74.28 19.032L72.552 16.584C76.176 14.928 77.832 11.16 77.832 7.824V6.672ZM78.528 6.672H81V7.824C81 10.992 82.56 14.544 86.04 16.224L84.336 18.648C80.424 16.848 78.528 12.288 78.528 7.824V6.672ZM73.32 4.536H85.416V7.056H73.32V4.536ZM77.808 1.416H81V5.832H77.808V1.416ZM87.168 0.912H90.384V23.136H87.168V0.912ZM89.664 9.528H93.6V12.168H89.664V9.528ZM117.785 4.104H121.625V6.696H117.785V4.104ZM117.785 8.928H121.625V11.52H117.785V8.928ZM115.577 0.912H118.769V15H115.577V0.912ZM111.545 15.24C116.129 15.24 119.009 16.704 119.009 19.2C119.009 21.672 116.129 23.136 111.545 23.136C106.961 23.136 104.081 21.672 104.081 19.2C104.081 16.704 106.961 15.24 111.545 15.24ZM111.545 17.64C108.737 17.64 107.249 18.144 107.249 19.2C107.249 20.256 108.737 20.76 111.545 20.76C114.353 20.76 115.841 20.256 115.841 19.2C115.841 18.144 114.353 17.64 111.545 17.64ZM101.273 3.024H114.353V5.496H101.273V3.024ZM107.825 6.24C111.041 6.24 113.273 7.848 113.273 10.224C113.273 12.624 111.041 14.208 107.825 14.208C104.585 14.208 102.353 12.624 102.353 10.224C102.353 7.848 104.585 6.24 107.825 6.24ZM107.825 8.568C106.385 8.568 105.425 9.144 105.425 10.224C105.425 11.304 106.385 11.88 107.825 11.88C109.241 11.88 110.225 11.304 110.225 10.224C110.225 9.144 109.241 8.568 107.825 8.568ZM106.217 0.767999H109.409V4.344H106.217V0.767999ZM138.663 0.912H141.879V23.136H138.663V0.912ZM132.111 3.216H135.279C135.279 10.008 132.975 15.576 125.079 19.392L123.423 16.848C129.807 13.776 132.111 9.744 132.111 3.792V3.216ZM124.599 3.216H133.623V5.736H124.599V3.216Z" fill="#4E4E4E"/>
</svg>
