<svg width="104" height="18" viewBox="0 0 104 18" fill="none" xmlns="http://www.w3.org/2000/svg">
<path d="M2.25433 2.338H12.8203V4.264H2.25433V2.338ZM0.724328 13.66H15.7903V15.604H0.724328V13.66ZM6.05233 7.936H8.44633V14.614H6.05233V7.936ZM11.9563 2.338H14.3503V3.94C14.3503 6.028 14.3503 8.368 13.6843 11.932L11.2903 11.662C11.9563 8.35 11.9563 5.938 11.9563 3.94V2.338ZM17.2829 13.696H32.3669V15.658H17.2829V13.696ZM23.5469 9.988H25.9229V14.218H23.5469V9.988ZM23.4569 1.852H25.5449V3.058C25.5449 6.604 22.9709 9.736 18.6149 10.528L17.6249 8.53C21.4229 7.918 23.4569 5.362 23.4569 3.058V1.852ZM23.9249 1.852H26.0129V3.058C26.0129 5.416 28.0469 7.918 31.8629 8.53L30.8729 10.528C26.4989 9.718 23.9249 6.658 23.9249 3.058V1.852ZM44.5515 0.952H46.9455V13.408H44.5515V0.952ZM46.2615 6.028H49.1595V7.99H46.2615V6.028ZM33.8235 2.68H43.6335V4.552H33.8235V2.68ZM38.7375 5.146C41.1315 5.146 42.8235 6.46 42.8235 8.368C42.8235 10.276 41.1315 11.572 38.7375 11.572C36.3255 11.572 34.6335 10.276 34.6335 8.368C34.6335 6.46 36.3255 5.146 38.7375 5.146ZM38.7375 6.964C37.6755 6.964 36.9375 7.468 36.9375 8.368C36.9375 9.268 37.6755 9.754 38.7375 9.754C39.7995 9.754 40.5375 9.268 40.5375 8.368C40.5375 7.468 39.7995 6.964 38.7375 6.964ZM37.5315 0.915999H39.9255V3.598H37.5315V0.915999ZM36.1995 15.406H47.5395V17.314H36.1995V15.406ZM36.1995 12.472H38.5935V16.234H36.1995V12.472ZM55.0759 13.732H70.1599V15.676H55.0759V13.732ZM61.3939 10.168H63.7879V14.2H61.3939V10.168ZM56.6599 1.996H59.0359V4.552H66.1459V1.996H68.5219V10.672H56.6599V1.996ZM59.0359 6.424V8.764H66.1459V6.424H59.0359ZM83.1005 0.915999H85.4945V17.638H83.1005V0.915999ZM72.5165 11.806H73.9925C76.9445 11.806 79.3025 11.698 81.9485 11.248L82.1825 13.174C79.4825 13.66 77.0345 13.75 73.9925 13.75H72.5165V11.806ZM72.4985 2.338H80.3645V8.782H74.9465V12.526H72.5165V6.892H77.9165V4.246H72.4985V2.338ZM91.8291 5.254H93.6831V6.118C93.6831 9.628 92.1891 13.174 89.1651 14.524L87.8691 12.688C90.5871 11.446 91.8291 8.62 91.8291 6.118V5.254ZM92.3511 5.254H94.2051V6.118C94.2051 8.494 95.3751 11.158 97.9851 12.418L96.7071 14.236C93.7731 12.886 92.3511 9.466 92.3511 6.118V5.254ZM88.4451 3.652H97.5171V5.542H88.4451V3.652ZM91.8111 1.312H94.2051V4.624H91.8111V1.312ZM98.8311 0.934H101.243V17.602H98.8311V0.934ZM100.703 7.396H103.655V9.376H100.703V7.396Z" fill="#555555"/>
</svg>
