<svg width="70" height="70" viewBox="0 0 70 70" fill="none" xmlns="http://www.w3.org/2000/svg">
<rect width="70" height="70" fill="#F5F5F5"/>
<path opacity="0.64" d="M0 0H70V70H0V0Z" fill="white"/>
<path d="M5 14C5 8.47715 9.47715 4 15 4H55C60.5228 4 65 8.47715 65 14V54C65 59.5228 60.5228 64 55 64H15C9.47715 64 5 59.5228 5 54V14Z" fill="#0E0D0D"/>
<path d="M28.9995 22.3163C28.9995 25.8047 26.3133 28.6326 22.9997 28.6326C19.6862 28.6326 17 25.8047 17 22.3163C17 18.8279 19.6862 16 22.9997 16C26.3133 16 28.9995 18.8279 28.9995 22.3163Z" fill="white"/>
<path d="M28.9995 22.3163C28.9995 25.8047 26.3133 28.6326 22.9997 28.6326C19.6862 28.6326 17 25.8047 17 22.3163C17 18.8279 19.6862 16 22.9997 16C26.3133 16 28.9995 18.8279 28.9995 22.3163Z" fill="white"/>
<path d="M54 46.6837C54 50.1721 51.3138 53 48.0003 53C44.6867 53 42.0005 50.1721 42.0005 46.6837C42.0005 43.1953 44.6867 40.3674 48.0003 40.3674C51.3138 40.3674 54 43.1953 54 46.6837Z" fill="white"/>
<path d="M54 46.6837C54 50.1721 51.3138 53 48.0003 53C44.6867 53 42.0005 50.1721 42.0005 46.6837C42.0005 43.1953 44.6867 40.3674 48.0003 40.3674C51.3138 40.3674 54 43.1953 54 46.6837Z" fill="white"/>
</svg>
